<svg xmlns="http://www.w3.org/2000/svg" xmlns:xlink="http://www.w3.org/1999/xlink" width="500" zoomAndPan="magnify" viewBox="0 0 375 374.999991" height="500" preserveAspectRatio="xMidYMid meet" version="1.0"><defs><clipPath id="c5123100e3"><path d="M 69.679688 100.753906 L 201 100.753906 L 201 274 L 69.679688 274 Z M 69.679688 100.753906 " clip-rule="nonzero"/></clipPath><clipPath id="22ff1c981f"><path d="M 198 101 L 305.179688 101 L 305.179688 151 L 198 151 Z M 198 101 " clip-rule="nonzero"/></clipPath><clipPath id="365535ced9"><path d="M 200 176 L 305 176 L 305 274.003906 L 200 274.003906 Z M 200 176 " clip-rule="nonzero"/></clipPath></defs><rect x="-37.5" width="450" fill="#ffffff" y="-37.499999" height="449.999989" fill-opacity="1"/><rect x="-37.5" width="450" fill="#38b6ff" y="-37.499999" height="449.999989" fill-opacity="1"/><g clip-path="url(#c5123100e3)"><path fill="#ffffff" d="M 70.636719 108.859375 C 77.203125 106.253906 83.960938 104.226562 90.960938 102.828125 C 97.960938 101.476562 105.109375 100.753906 112.542969 100.753906 C 125.339844 100.753906 137.121094 102.734375 147.886719 106.640625 C 158.652344 110.597656 167.921875 116.097656 175.695312 123.238281 C 183.46875 130.378906 189.503906 138.917969 193.804688 148.808594 C 198.050781 158.746094 200.222656 169.601562 200.222656 181.421875 C 200.222656 195.21875 197.085938 207.8125 190.859375 219.199219 C 184.628906 230.582031 175.746094 240.378906 164.253906 248.484375 C 152.761719 256.589844 139.003906 262.859375 123.019531 267.296875 C 106.992188 271.738281 89.222656 273.957031 69.71875 273.957031 L 69.71875 245.925781 C 85.3125 245.925781 99.410156 244.382812 111.964844 241.246094 C 124.519531 238.109375 135.238281 233.71875 144.121094 227.976562 C 153.003906 222.238281 159.859375 215.289062 164.6875 207.183594 C 169.515625 199.078125 171.929688 190.007812 171.929688 179.972656 C 171.929688 172.449219 170.675781 165.597656 168.214844 159.566406 C 165.75 153.488281 162.324219 148.277344 157.882812 143.933594 C 153.4375 139.59375 148.03125 136.261719 141.609375 133.949219 C 135.1875 131.632812 128.042969 130.523438 120.171875 130.523438 C 113.460938 130.523438 106.316406 131.4375 98.734375 133.222656 L 98.734375 223.539062 L 70.636719 223.539062 Z M 70.636719 108.859375 " fill-opacity="1" fill-rule="nonzero"/></g><g clip-path="url(#22ff1c981f)"><path fill="#ffffff" d="M 305.140625 150.976562 L 273.855469 150.976562 C 271.535156 144.273438 267.144531 139.0625 260.671875 135.492188 C 254.203125 131.875 246.1875 130.089844 236.675781 130.089844 C 228.855469 130.089844 221.757812 131.34375 215.433594 133.804688 C 211.234375 124.683594 205.535156 116.820312 198.246094 110.113281 C 199.839844 109.292969 201.480469 108.523438 203.167969 107.796875 C 212.679688 103.746094 223.207031 101.71875 234.699219 101.71875 C 243.871094 101.71875 252.417969 102.878906 260.289062 105.144531 C 268.15625 107.460938 275.207031 110.789062 281.339844 115.132812 C 287.519531 119.472656 292.636719 124.683594 296.738281 130.761719 C 300.84375 136.84375 303.644531 143.546875 305.140625 150.976562 Z M 305.140625 150.976562 " fill-opacity="1" fill-rule="nonzero"/></g><g clip-path="url(#365535ced9)"><path fill="#ffffff" d="M 304.898438 176.789062 L 304.898438 274.003906 L 278.296875 274.003906 L 278.296875 251.136719 C 272.066406 257.84375 264.488281 263.054688 255.652344 266.769531 C 246.769531 270.433594 237.449219 272.316406 227.601562 272.316406 C 217.800781 272.316406 208.671875 270.242188 200.222656 266.09375 C 204.28125 261.507812 207.707031 256.539062 210.605469 251.28125 C 212.34375 248.097656 213.839844 244.863281 215.09375 241.535156 C 219.683594 243.222656 224.558594 244.042969 229.820312 244.042969 C 236.242188 244.042969 242.132812 243.078125 247.539062 241.101562 C 252.949219 239.125 257.679688 236.375 261.6875 232.851562 C 265.695312 229.328125 268.882812 225.179688 271.152344 220.402344 C 273.46875 215.628906 274.578125 210.464844 274.578125 204.917969 L 218.714844 204.917969 L 218.714844 176.886719 L 304.898438 176.886719 Z M 304.898438 176.789062 " fill-opacity="1" fill-rule="nonzero"/></g></svg>